<svg id="レイヤー_1" data-name="レイヤー 1" xmlns="http://www.w3.org/2000/svg" viewBox="0 0 638.37 138.82"><defs><style>.cls-1{isolation:isolate;}.cls-2{fill:#fff;}</style></defs><g id="Faucet_LAVATORY_Planning" data-name="Faucet LAVATORY Planning" class="cls-1"><g class="cls-1"><path class="cls-2" d="M4.23,16.85H23.54v3.63H8.69V32h12v3.63h-12V51H4.23Z" transform="translate(-4.23 -16.41)"/><path class="cls-2" d="M63.81,43.41H48.92L46.18,51H41.47L53.82,17.05H59l12.3,34h-4.7ZM56.37,22.53,50.19,39.78H62.54Z" transform="translate(-4.23 -16.41)"/><path class="cls-2" d="M91.26,16.85h4.45V38.46c0,6.27,3.38,9,8.43,9s8.38-2.69,8.38-9V16.85H117V38.41c0,8.87-5.83,12.93-12.89,12.93S91.26,47.28,91.26,38.41Z" transform="translate(-4.23 -16.41)"/><path class="cls-2" d="M154.51,16.41c7.4,0,13.28,3.72,15.83,10.34H165c-1.86-4.12-5.49-6.42-10.49-6.42-7.15,0-12.49,5.19-12.49,13.57s5.34,13.52,12.49,13.52c5,0,8.63-2.3,10.49-6.37h5.34c-2.55,6.57-8.43,10.24-15.83,10.24-9.55,0-17-7.15-17-17.39S145,16.41,154.51,16.41Z" transform="translate(-4.23 -16.41)"/><path class="cls-2" d="M210,20.48H196.11V31.89h12.45v3.68H196.11V47.33H210V51H191.65V16.8H210Z" transform="translate(-4.23 -16.41)"/><path class="cls-2" d="M229.38,16.85h23.13v3.63H243.2V51h-4.46V20.48h-9.36Z" transform="translate(-4.23 -16.41)"/></g><g class="cls-1"><path class="cls-2" d="M280.66,17.09h3.28l-9.87,40h-3.24Z" transform="translate(-4.23 -16.41)"/></g><g class="cls-1"><path class="cls-2" d="M305.09,16.85V47.37h12V51H300.64V16.85Z" transform="translate(-4.23 -16.41)"/><path class="cls-2" d="M356.69,43.41h-14.9L339.05,51h-4.7l12.34-33.95h5.15l12.3,34h-4.71Zm-7.45-20.88-6.17,17.25h12.35Z" transform="translate(-4.23 -16.41)"/><path class="cls-2" d="M407.75,16.85h4.7L399.56,51h-5.14L381.53,16.85h4.76L397,46.3Z" transform="translate(-4.23 -16.41)"/><path class="cls-2" d="M452.24,43.41h-14.9L434.6,51h-4.7l12.34-33.95h5.15l12.3,34H455Zm-7.45-20.88-6.17,17.25H451Z" transform="translate(-4.23 -16.41)"/><path class="cls-2" d="M477.67,16.85H500.8v3.63h-9.31V51H487V20.48h-9.36Z" transform="translate(-4.23 -16.41)"/><path class="cls-2" d="M536.47,51.34c-9.6,0-17.15-7.2-17.15-17.44s7.55-17.44,17.15-17.44,17.15,7.2,17.15,17.44S546.12,51.34,536.47,51.34Zm0-3.87c7.2,0,12.59-5.24,12.59-13.57s-5.39-13.57-12.59-13.57-12.59,5.19-12.59,13.57S529.27,47.47,536.47,47.47Z" transform="translate(-4.23 -16.41)"/><path class="cls-2" d="M585.22,16.85c8,0,11.86,4.46,11.86,10,0,4.36-2.4,8.53-8.13,9.8L597.52,51h-5.34l-8.13-14h-5.39V51H574.2V16.85Zm0,3.67h-6.56V33.46h6.56c5,0,7.26-2.74,7.26-6.57S590.32,20.52,585.22,20.52Z" transform="translate(-4.23 -16.41)"/><path class="cls-2" d="M615.85,16.85h4.95l8.43,17.3,8.42-17.3h5L631.48,38.11V51H627V38.11Z" transform="translate(-4.23 -16.41)"/></g><g class="cls-1"><path class="cls-2" d="M178.94,127.74h-6.56V142h-4.46V107.85h11c8,0,11.81,4.41,11.81,10C190.75,123,187.42,127.74,178.94,127.74Zm0-3.67c5.1,0,7.25-2.4,7.25-6.23s-2.15-6.32-7.25-6.32h-6.56v12.55Z" transform="translate(-4.23 -16.41)"/><path class="cls-2" d="M211,105.74h4.46V142H211Z" transform="translate(-4.23 -16.41)"/><path class="cls-2" d="M248.82,114.71a11.15,11.15,0,0,1,10,5.34v-4.9h4.51V142h-4.51v-5a11.21,11.21,0,0,1-10,5.44c-7.16,0-12.69-5.63-12.69-14S241.61,114.71,248.82,114.71Zm.88,3.87c-4.9,0-9.07,3.58-9.07,9.9s4.17,10,9.07,10,9.11-3.67,9.11-10S254.6,118.58,249.7,118.58Z" transform="translate(-4.23 -16.41)"/><path class="cls-2" d="M305.21,126.81c0-5.49-3-8.28-7.49-8.28s-7.69,2.84-7.69,8.62V142h-4.46V115.15H290V119a9.91,9.91,0,0,1,8.62-4.31c6.22,0,11,3.82,11,11.51V142h-4.41Z" transform="translate(-4.23 -16.41)"/><path class="cls-2" d="M351.27,126.81c0-5.49-3-8.28-7.49-8.28s-7.69,2.84-7.69,8.62V142h-4.46V115.15h4.46V119a9.91,9.91,0,0,1,8.62-4.31c6.22,0,11,3.82,11,11.51V142h-4.41Z" transform="translate(-4.23 -16.41)"/><path class="cls-2" d="M377,107.75a3,3,0,1,1,3,3A3,3,0,0,1,377,107.75Zm.74,7.4h4.45V142h-4.45Z" transform="translate(-4.23 -16.41)"/><path class="cls-2" d="M424.09,126.81c0-5.49-3-8.28-7.5-8.28s-7.69,2.84-7.69,8.62V142h-4.46V115.15h4.46V119a9.92,9.92,0,0,1,8.62-4.31c6.22,0,11,3.82,11,11.51V142h-4.41Z" transform="translate(-4.23 -16.41)"/><path class="cls-2" d="M461.57,114.71c4.9,0,8.43,2.45,10,5.34v-4.9h4.51v27.44c0,7.4-4.95,12.64-12.84,12.64-7.06,0-12.1-3.58-13-9.31h4.41c1,3.23,4.17,5.44,8.58,5.44,4.75,0,8.33-3,8.33-8.77V137a11.23,11.23,0,0,1-10,5.49c-7.2,0-12.74-5.63-12.74-14S454.37,114.71,461.57,114.71Zm.89,3.87c-4.91,0-9.07,3.58-9.07,9.9s4.16,10,9.07,10,9.11-3.67,9.11-10S467.35,118.58,462.46,118.58Z" transform="translate(-4.23 -16.41)"/></g></g></svg>