<svg
 xmlns="http://www.w3.org/2000/svg"
 xmlns:xlink="http://www.w3.org/1999/xlink"
 width="48px" height="48px">
<path fill-rule="evenodd"  fill="rgb(255, 255, 255)"
 d="M24.015,47.985 C18.760,47.985 13.905,46.295 9.956,43.433 C16.461,33.018 21.893,24.329 24.224,20.621 C26.359,24.029 31.517,32.354 31.517,32.354 C31.517,32.354 32.121,33.208 32.975,33.208 L35.935,33.208 C35.024,33.208 34.677,32.979 34.152,32.354 C33.947,32.107 25.946,19.199 25.946,19.199 C25.946,19.199 25.347,18.345 24.488,18.345 L21.533,18.345 C22.444,18.345 22.787,18.571 23.312,19.199 C23.351,19.242 23.612,19.654 24.020,20.300 C19.303,27.862 14.313,35.858 9.696,43.250 C9.097,42.808 8.524,42.336 7.974,41.841 C15.163,30.325 20.865,21.206 22.184,19.138 C21.841,19.186 21.516,19.555 21.451,19.650 C16.956,26.852 12.195,34.479 7.735,41.620 C6.984,40.931 6.277,40.185 5.617,39.404 C12.499,28.395 19.789,16.741 22.740,12.045 C23.963,13.987 25.551,16.545 25.551,16.545 C25.551,16.545 26.155,17.399 27.009,17.399 L29.964,17.399 C29.057,17.399 28.706,17.174 28.185,16.545 C27.990,16.311 24.501,10.701 24.045,9.972 C24.076,9.933 24.098,9.898 24.098,9.898 C24.206,9.768 24.306,9.660 24.406,9.564 C24.501,9.660 24.601,9.768 24.710,9.898 C24.914,10.141 28.892,16.545 28.892,16.545 C28.892,16.545 29.495,17.399 30.350,17.399 L33.306,17.399 C32.398,17.399 32.051,17.174 31.526,16.545 C31.487,16.498 31.327,16.255 31.092,15.886 C33.397,12.197 35.805,8.337 38.131,4.609 C38.729,5.047 39.311,5.510 39.866,6.001 C36.560,11.286 34.034,15.314 33.210,16.606 C33.548,16.554 33.870,16.190 33.939,16.094 C35.952,12.864 38.052,9.504 40.109,6.209 C42.730,8.580 44.826,11.525 46.202,14.841 C42.261,21.146 38.326,27.437 36.360,30.564 C34.103,26.965 29.287,19.199 29.287,19.199 C29.287,19.199 28.689,18.345 27.833,18.345 L24.875,18.345 C25.785,18.345 26.133,18.571 26.657,19.199 C26.861,19.442 34.863,32.354 34.863,32.354 C34.863,32.354 34.937,32.458 35.067,32.593 L35.062,32.602 C35.002,32.680 34.941,32.745 34.881,32.814 L35.314,32.814 C35.570,33.014 35.918,33.208 36.321,33.208 L39.276,33.208 C38.643,33.208 38.282,33.091 37.944,32.814 L38.547,32.814 C39.181,32.814 39.680,32.125 39.680,32.125 C41.359,29.436 44.366,24.619 47.585,19.472 C47.863,20.942 48.015,22.451 48.015,24.003 C48.015,37.245 37.271,47.985 24.015,47.985 ZM37.893,32.773 C37.763,32.655 37.633,32.521 37.494,32.352 C37.468,32.317 37.295,32.049 37.021,31.620 C39.134,28.233 42.927,22.154 46.689,16.140 C46.897,16.730 47.079,17.328 47.240,17.939 C42.454,25.601 38.145,32.474 38.036,32.604 C37.989,32.660 37.941,32.716 37.893,32.773 ZM27.342,9.896 C27.342,9.896 26.744,9.042 25.885,9.042 L23.290,9.042 L22.925,9.042 C23.029,9.042 23.121,9.046 23.207,9.050 C23.108,9.059 23.008,9.076 22.917,9.102 C22.821,9.076 22.622,9.050 22.622,9.050 C22.713,9.046 22.804,9.042 22.908,9.042 L22.539,9.042 L20.318,9.042 L19.584,9.042 C19.762,9.042 19.914,9.055 20.057,9.072 C19.341,9.215 18.855,9.896 18.855,9.896 C18.855,9.896 10.993,22.479 2.900,35.422 C1.060,32.026 0.010,28.133 0.010,24.001 C0.010,10.759 10.758,0.019 24.014,0.019 C29.178,0.019 33.960,1.653 37.874,4.428 C34.750,9.423 32.198,13.499 30.892,15.567 C29.721,13.716 27.342,9.896 27.342,9.896 ZM21.245,9.759 C21.284,9.806 21.323,9.845 21.366,9.898 C21.392,9.928 21.475,10.054 21.609,10.257 C20.182,12.538 12.176,25.351 4.391,37.804 C4.257,37.617 4.122,37.426 3.996,37.236 C12.432,23.742 21.019,10.019 21.123,9.898 C21.167,9.845 21.206,9.806 21.245,9.759 Z"/>
</svg>